# xmcd CD database file
# Copyright (C) 1993-1998 Ti Kan
#
# Track frame offsets:
#  150
#  13337
#  27825
#  44372
#  59732
#  76070
#  85917
#  97200
#  113025
#  124100
#  137525
#  147850
#  156962
#  177887
#  186625
#  199675
#  208350
#  227825
#
# Disc length: 3089 seconds
#
# Revision: 1
# Processed by: cddbd v1.4b41PL1 Copyright (c) Steve Scherf et al.
# Submitted via: CDWizzard Release:4.61
#
DISCID=080c0f12
DTITLE=Bill Jackson - Long Steel Rail
DYEAR=1900
DGENRE=
TTITLE0=Old Rounder Blues
TTITLE1=Long Steel Rail
TTITLE2=Last Go Round
TTITLE3=Careless Love
TTITLE4=Titanic Blues
TTITLE5=Freight Train Runs So Slow
TTITLE6=Trouble In Mind
TTITLE7=Blues In The Morning
TTITLE8=You Ain't No Woman
TTITLE9=Freight Train Blues
TTITLE10=Moaning Guitar Blues
TTITLE11=Going Back South
TTITLE12=Blood Red River
TTITLE13=Don't You Put Your Hands On Me
TTITLE14=Jailhouse Blues
TTITLE15=Key To The Highway
TTITLE16=Master and John - story
TTITLE17=Monkey, Baboon and Ape - story
EXTD=Recorded in Philadelphia, PA in 1962.  Submitted to CD database by s
EXTD=tbob@krylon.org
EXTT0=
EXTT1=
EXTT2=
EXTT3=
EXTT4=
EXTT5=
EXTT6=
EXTT7=
EXTT8=
EXTT9=
EXTT10=
EXTT11=
EXTT12=
EXTT13=
EXTT14=
EXTT15=
EXTT16=
EXTT17=
PLAYORDER=
